<?xml version="1.0" encoding="UTF-8"?>
<svg version="1.1" viewBox="0 0 2044 2048" width="30" height="30" xmlns="http://www.w3.org/2000/svg">
<path transform="translate(109,7)" d="m0 0h1827l18 3 15 5 15 8 14 10 14 14 10 15 7 14 5 15 3 19v1823l-3 21-7 19-7 13-9 12-9 10-14 11-16 9-21 7-11 2-14 1h-1812l-18-2-20-6-17-9-12-9-11-10-11-14-7-12-6-15-4-17-1-10v-1826l3-18 6-17 8-15 10-13 13-13 16-11 17-8 14-4z" fill="#3B5B99"/>
<path transform="translate(1455,314)" d="m0 0h96l53 2 63 4 44 4 11 2v273l-1 1-180 1-23 2-25 5-21 7-18 10-13 11-9 11-9 15-7 19-5 23-2 19-1 222h303l-2 20-16 123-19 148-2 14-1 1-263 1v786h-317l-1-32v-698l1-56h-263l-2-2v-305l264-1v-202l1-44 2-32 4-33 6-32 7-28 10-30 11-26 12-24 12-20 12-17 8-10 9-11 11-12 15-15 11-9 12-10 20-14 22-13 26-13 28-11 29-9 25-6 30-5 27-3z" fill="#000000"/>
</svg>
