<?xml version="1.0" encoding="UTF-8"?>
<svg version="1.1" viewBox="0 0 900 900" width="60" height="60" xmlns="http://www.w3.org/2000/svg">
<path transform="translate(0)" d="m0 0h900v900h-900z" fill="#be3144"/>
<path transform="translate(344,225)" d="m0 0h214l18 3 18 6 16 8 11 7 10 8 14 14 14 21 7 15 5 15 3 15 1 10v208l-3 20-7 21-10 19-10 14-9 10-9 8-15 10-14 7-19 7-19 3-13 1h-193l-21-2-16-3-19-8-13-7-14-10-6-5-14-16-7-10-8-16-5-13-4-16-2-16v-207l2-17 5-17 5-12 9-17 9-12 7-8h2v-2l11-9 11-8 19-10 19-6z" fill="#be3144"/>
<path transform="translate(344,225)" d="m0 0h214l18 3 18 6 16 8 11 7 10 8 14 14 14 21 7 15 5 15 3 15 1 10v208l-3 20-7 21-10 19-10 14-9 10-9 8-15 10-14 7-19 7-19 3-13 1h-193l-21-2-16-3-19-8-13-7-14-10-6-5-14-16-7-10-8-16-5-13-4-16-2-16v-207l2-17 5-17 5-12 9-17 9-12 7-8h2v-2l11-9 11-8 19-10 19-6zm-3 43-18 4-16 8-11 8-11 11-9 14-5 11-4 15-1 7v207l3 17 6 17 7 12 7 9 11 9 14 9 12 5 14 3 9 1h206l18-4 12-5 12-7 10-8 9-10 8-13 5-11 4-17 1-170v-37l-2-17-5-16-7-14-8-10-8-8-10-7-15-8-9-3-12-2z" fill="#000000"/>
<path transform="translate(443,334)" d="m0 0h15l19 3 16 5 16 8 11 7 10 9 12 12 7 10 7 12 7 19 3 15 1 8v18l-3 19-6 18-9 17-8 11-11 12-11 9-9 6-19 9-13 4-16 3h-22l-23-4-15-6-12-6-14-10-7-6-7-8-9-11-8-14-6-14-4-15-2-16v-17l3-17 5-16 8-17 6-9 11-13 11-10 13-9 19-9 13-4z" fill="#000000"/>
<path transform="translate(265,383)" d="m0 0h1l1 170 3 17 6 17 7 12 6 8 11 9 14 9 12 5 14 3 9 1h206l18-4 12-5 12-7 10-8 8-9 8-13 5-9 3-3 1 1 6-2 3 5 5 1v2h3l2 5 2 8 2 1 1 4 2 1v-2h3l1-5h2l-1 5-8 15-10 14-9 10-9 8-15 10-14 7-19 7-19 3-13 1h-193l-21-2-16-3-19-8-13-7-14-10-6-5-14-16-7-10-8-16-5-13-4-16-2-16v-146l1-9 2-5h3v2l6 2 2 2 12 1 6-3 5-5h2z" fill="#000000"/>
<path transform="translate(445,375)" d="m0 0 17 1 17 5 12 6 10 8 11 11 8 15 4 13 2 14v10l-4 17-5 12-6 10-15 15-16 9-13 4-9 2h-15l-14-3-15-6-11-7-12-12-7-10-6-14-4-20 1-16 3-12 6-15 8-10 5-6 10-8 16-8 9-3z" fill="#be3144"/>
<path transform="translate(636,265)" d="m0 0 7 6 7 10 5 5 6 10 8 19 4 15 2 17v208l-3 20-7 21-3-1-1 5h-3v2l-3-1v-4l-3-1v-4l-2-1-1-8h-3v-2h-6l-2-5-10 3 4-19 1-170v-37l-2-17-5-16-7-14-8-10-7-7-10-7-15-8-6-3v-1h7l11 4 10 3 5 2v2l4 1 2 1 13-1 6-2 4-1 1-10z" fill="#000000"/>
<path transform="translate(349,456)" d="m0 0h2l1 5 3 1v2l10 2 5-2 3 5 5 12 4 1 6 12 12 13 7 6 16 8 13 4 7 1h15l17-4 11-5 9-1 5-2 3 1 2-1 2 1 1-3 5-4h5l-1 3 5-3h2l1 7 2 7v5l-2 4 6-2v2h3l-2 4-10 9-12 8-19 9-13 4-16 3h-22l-23-4-15-6-12-6-14-10-7-6-7-8-9-11-8-14-6-14-4-15-1-7v-10h1l2 8 3-4 2-1 4-1z" fill="#000000"/>
<path transform="translate(674,371)" d="m0 0h1v184l-3 20-7 21-3-1-1 5h-3v2l-3-1v-4l-3-1v-4l-2-1-1-8h-3v-2h-6l-2-5-10 3 4-19 1-170h1l1 16 1-26h2l2 13 3 8 2 5 2 13v2l2 2 4 6 1 4 2 9 7 3 3 6 3 3 1 2 1 1 1 23 1 52v-88z" fill="#000000"/>
<path transform="translate(637,575)" d="m0 0 2 1 2 4 5 1v2h3l2 5 2 8 2 1 1 4 2 1v-2h3l1-5h2l-1 5-8 15-10 14-9 10-9 8-15 10-14 7-19 7-21 3-13-1-2-4 1-5 1-4-4-4v-4h-2l-4-5-6-3-3-5 1-2 4-1 18-1 20-4 12-4 13-7 12-9 9-10 8-13 5-9 3-3 1 1z" fill="#000000"/>
<path transform="translate(265,383)" d="m0 0h1v126l-1 15h-1v-12l-4-1-2-5-2-4-11-2h-4l-1 2h-2l-1 5-5 5-3-7v-5l-1 4-1 31-2-4v-124l1-9 2-5h3v2l6 2 2 2 12 1 6-3 5-5h2z" fill="#000000"/>
<path transform="translate(258,316)" d="m0 0 8 1 4 8-1 9-2 12-1 37-1 12-1-3-4 3h-2l-1 3-7 3-11-1-8-5v-2h-3l-2 14h-1v-61l6-8v-6h2v-5l2-2 2-5 1-1 13-1 3 1v-2z" fill="#000000"/>
<path transform="translate(458,636)" d="m0 0h73l-4 1 1 5 5 3 6 5v2h2l3 7h2v5l-2 1 1 7 13 1v1l-16 1v-2h-45l-11-2-8-5 1-2-5-3v-2l-2-1v-3l-4-4v-2l-15-3-11-1-10-2-5-3-1-3z" fill="#000000"/>
<path transform="translate(533,440)" d="m0 0h2v3l3 1 4 16 2 1 1 4v2l6-3 3-3 4 4 1 10v5h3l-2 12-9 19-10 14-6 7-5-2-5 1 1-9-2-9v-5l-8 4 1-3-5 1-5 5-5 1-3-1-8 3-4-2 10-6 14-14 8-15 4-14 2-9 1-17 3 4 1 7v-8l3-1z" fill="#000000"/>
<path transform="translate(228,498)" d="m0 0 2 3 1 6 2 4 4-6 1-3h2l1-3 11 1 5 2 4 9 3 1 2-3 1 44 1 7v8h-3l-1-2-8-2v2l-7 3-9-4-5 1-1 6h-2v9l-3-2-3-17-1-9v-22h1l1-27z" fill="#000000"/>
<path transform="translate(366,396)" d="m0 0 2 2 2-2 1 2 9 3h3l-2 1-1 4-1 2h-3l1 5-1 4h-2l1 8-1 4h-2l2 5v13l3 20 4 14h-4l-6-15-2-1-4 2-5-1-5-2-3-3-1-5-5 4h-3l-1 2h-2l-2 10h-1l-3-14h-1v-17l2-13 3-1 1-7h2v-3h2v-9l5-5 1-4 4-1 1 6 3-1 2 1v-2h3l2-5z" fill="#000000"/>
<path transform="translate(564,303)" d="m0 0h13l8 3 5 4v2h2l5 10 1 4v7l-3 9-4 6-7 6-8 3h-10l-10-4-7-6-5-10v-15l4-8 4-5 9-5z" fill="#000000"/>
<path transform="translate(636,265)" d="m0 0 7 6 7 10 5 5 6 10 8 19 1 6-2 1v-3l-11-1-1 4h-8l-5 1-9-6v-2l-4-1-4-5-2-1 2 6 2 4-1 3-8-15-8-10-7-7-10-7-15-8-6-3v-1h7l11 4 10 3 5 2v2l4 1 2 1 13-1 6-2 4-1 1-10z" fill="#000000"/>
<path transform="translate(237,564)" d="m0 0 6 1 7 3 6-2v-2l8 1 3 3 2-2 5 16 7 14 8 11 4 3-2 4-5-1v-2l-5-1-3-4-3-1 1 3-8 4-1-1-13-2-4 4h-6l-6-10-6-14-2-9h1v-6l1-2h2v-6z" fill="#000000"/>
<path transform="translate(635,518)" d="m0 0h1v6h3v2h3l1-2 3 7 2 2v8l1 10 4 4 7 5v-2l3-1 2-13 3 4v3l3-3v8l1 8-1 7v8l-6 17-3-1-1 5h-3v2l-3-1v-4l-3-1v-4l-2-1-1-8h-3v-2h-6l-2-5-10 3 4-19 1-2 1-11z" fill="#000000"/>
<path transform="translate(265,383)" d="m0 0h1v115h-1l-1-52-2 3-2-19h-6v2h-9l-10-2-2 1-2-1v2h-2l-1 3-1 15-1 81h-1v-124l1-9 2-5h3v2l6 2 2 2 12 1 6-3 5-5h2z" fill="#000000"/>
<path transform="translate(637,575)" d="m0 0 2 1 2 4 5 1v2h3l2 5 2 8 2 1 1 4 2 1v-2h3l1-5h2l-1 5-8 15-10 14-5 5-1-7 1-1-5-2-1-3-2-1-3 3-5-4-2 4-8 2v-2h2l1-3 3-3h2v-7l-4-1-1 3-5 1-7 3-8 6-2-1v-2l11-8 9-10 8-13 5-9 3-3 1 1z" fill="#000000"/>
<path transform="translate(355,511)" d="m0 0h2l3 6 9 3 4 5v2l3 1v2l4 2 8 7 3 1 1 2 7 2 2-1v2l9 2h6l7 3h2v2l12 3 14 4 5 3 3-1 5 2v-3l6-3h6v-3l15-6 6 2 3-1 2 5-4 4-13 5-14 3-9 2h-22l-23-4-15-6-12-6-14-10-7-6-7-8-9-11-2-4h3z" fill="#000000"/>
<path transform="translate(531,636)" d="m0 0h23l-3 1 3 5 16 5 4 5 5 2-1 5-9 8-2 6-9 1-13-1-2-4 1-5 1-4-4-4v-4h-2l-4-5-6-3-3-5 1-2z" fill="#000000"/>
<path transform="translate(234,428)" d="m0 0 1 2 19 2v-2l3-1 3 1 3 13h1v25l-2-4-2-6v-3l-6-1-5 1-8-1-5 2-3 1-5-1-1 3h-1l1-24 2-3h2v-2h2z" fill="#000000"/>
<path transform="translate(227,355)" d="m0 0h2l2 4 3 19 5 3 7-1 5-4 10-1 2-1 1-7h1v28l-1-3-4 3h-2l-1 3-7 3-11-1-8-5v-2h-3l-1 5h-1v-34z" fill="#000000"/>
<path transform="translate(264,528)" d="m0 0 2 2 1 23 1 7v8h-3l-1-2-8-2v2l-7 3-9-4-5 1-1 6h-2v9l-3-2-3-17 1-5h2l2-7 2-3 6 1 1 2h2l1 3 5-1 5-2 8-1 3 1z" fill="#000000"/>
<path transform="translate(653,296)" d="m0 0 3 3 3 6 1 4 2 4 2 1 1 4h-8l-1 4h-8l-5 1-9-6v-2l-4-1-4-5-2-1 2 6 2 4-1 3-6-11v-8l2-3 1 3 4-1 6 2 6-2 7-1 4-1z" fill="#000000"/>
<path transform="translate(262,392)" d="m0 0h2l1 3v20l-1 5-2-1v-10h-2l-2-3-13-3-12 2-5-1-2 2v-8l2-5h3v2l6 2 2 2 12 1 6-3z" fill="#000000"/>
<path transform="translate(443,334)" d="m0 0h15l15 2 1 2h-8l-5-1h-25l1-2z" fill="#000000"/>
<path transform="translate(552,398)" d="m0 0h3l8 21v9h-1l-3-11-4-12z" fill="#000000"/>
<path transform="translate(342,408)" d="m0 0h1v9h-2v3h-2v7l-3 1 1-8 3-10z" fill="#000000"/>
<path transform="translate(435,565)" d="m0 0 17 1 10 1v1h-22l-6-1z" fill="#000000"/>
<path transform="translate(612,605)" d="m0 0v3l-9 10-6 4-2-1v-2l11-8z" fill="#000000"/>
<path transform="translate(427,336)" d="m0 0h7v2l-10 2h-8l2-2z" fill="#000000"/>
<path transform="translate(558,412)" d="m0 0 3 1 2 6v9h-1l-3-11z" fill="#000000"/>
<path transform="translate(524,463)" d="m0 0 3 1v7l-2 3v-4h-2z" fill="#000000"/>
<path transform="translate(334,457)" d="m0 0h1l2 8v7l-2-1-1-4z" fill="#000000"/>
<path transform="translate(461,335)" d="m0 0 12 1 1 2h-8l-5-1z" fill="#000000"/>
<path transform="translate(590,277)" d="m0 0 10 5 1 2-5-1-7-4z" fill="#000000"/>
</svg>
