<?xml version="1.0" standalone="no"?>
<!DOCTYPE svg PUBLIC "-//W3C//DTD SVG 20010904//EN"
 "http://www.w3.org/TR/2001/REC-SVG-20010904/DTD/svg10.dtd">
<svg version="1.0" xmlns="http://www.w3.org/2000/svg"
 width="844.000000pt" height="666.000000pt" viewBox="0 0 844.000000 666.000000"
 preserveAspectRatio="xMidYMid meet" >
<metadata>
Created by potrace 1.16, written by Peter Selinger 2001-2019
</metadata>
<g transform="translate(0.000000,666.000000) scale(0.100000,-0.100000)"
fill="#FFF" stroke="none">
<path d="M3840 6276 c-239 -139 -615 -356 -835 -484 l-400 -231 0 -976 0 -976
325 -188 c179 -103 556 -321 839 -485 283 -163 520 -295 526 -294 7 2 388 221
848 487 l837 483 0 973 0 973 -837 483 c-460 266 -843 485 -852 486 -9 1 -212
-112 -451 -251z m1232 -364 l757 -437 0 -890 0 -890 -757 -437 c-416 -240
-764 -439 -772 -443 -9 -3 -212 109 -500 275 -267 154 -612 353 -767 443
l-282 162 0 890 0 890 287 165 c157 91 503 290 767 443 285 165 486 275 495
271 8 -3 356 -202 772 -442z"/>
<path d="M3835 5364 c-9 -9 -14 -23 -11 -31 3 -8 6 -17 6 -19 0 -2 22 -4 50
-4 49 0 49 0 55 -37 19 -119 46 -192 96 -254 l31 -39 -166 0 c-151 0 -166 -2
-175 -19 -16 -29 7 -50 59 -53 l45 -3 7 -64 c14 -131 65 -249 141 -328 l31
-33 -206 0 c-217 0 -234 -4 -226 -47 3 -15 16 -19 73 -23 l70 -5 7 -80 c15
-163 76 -304 173 -400 63 -62 140 -107 216 -124 24 -6 108 -11 186 -11 159 0
227 15 310 68 138 89 233 265 251 467 l7 80 70 5 c57 4 70 8 73 23 8 43 -9 47
-226 47 l-206 0 31 33 c76 79 127 197 141 328 l7 64 45 3 c52 3 75 24 59 53
-9 17 -24 19 -174 19 l-165 0 34 45 c37 48 70 127 81 191 17 101 12 94 65 94
34 0 50 4 54 16 8 21 8 20 -10 38 -14 14 -69 16 -454 16 -392 0 -440 -2 -455
-16z m735 -92 c0 -92 -59 -209 -131 -262 -40 -29 -46 -30 -146 -30 -71 0 -113
5 -132 14 -71 37 -139 156 -148 257 l-6 59 282 0 281 0 0 -38z m110 -397 c0
-141 -97 -323 -201 -375 -33 -17 -59 -20 -189 -20 -174 0 -197 7 -267 83 -71
77 -122 207 -123 310 l0 37 390 0 390 0 0 -35z m106 -536 c-23 -245 -138 -412
-319 -464 -46 -13 -91 -16 -205 -13 -139 3 -150 5 -207 32 -33 17 -84 54 -115
85 -85 86 -131 200 -146 359 l-7 72 503 0 503 0 -7 -71z"/>
<path d="M7455 1690 c-38 -10 -84 -19 -102 -19 -44 -1 -63 -10 -63 -31 0 -12
12 -20 43 -26 40 -9 42 -11 49 -54 8 -58 8 -579 -1 -645 -6 -48 -8 -51 -48
-65 -29 -10 -43 -20 -43 -32 0 -17 14 -18 181 -18 179 0 180 0 177 22 -2 14
-14 25 -35 32 -60 20 -58 5 -55 399 1 199 5 383 8 410 6 45 5 47 -18 46 -12
-1 -54 -9 -93 -19z"/>
<path d="M189 1697 c-5 -13 -25 -214 -22 -219 12 -23 40 -3 63 44 34 70 73 91
159 85 38 -3 67 -10 72 -18 11 -17 12 -699 1 -716 -4 -7 -26 -19 -47 -26 -28
-10 -40 -20 -40 -33 0 -18 11 -19 188 -22 l187 -2 0 22 c-1 17 -12 28 -43 43
l-42 20 -3 351 c-2 300 0 353 12 364 9 6 41 14 73 17 81 6 120 -16 153 -84 19
-40 30 -52 48 -53 26 0 25 -4 10 126 l-11 102 -31 -9 c-42 -12 -668 -11 -700
1 -14 5 -26 8 -27 7z"/>
<path d="M4520 1665 c-323 -91 -434 -512 -197 -749 94 -95 203 -133 347 -122
47 3 108 12 135 19 65 18 155 64 156 80 0 6 0 60 -1 118 -1 117 6 135 61 146
20 4 29 12 29 24 0 19 -9 19 -187 17 -157 -3 -188 -5 -188 -18 0 -8 14 -17 34
-21 57 -12 63 -24 64 -147 2 -138 -3 -147 -96 -147 -155 0 -260 126 -276 330
-15 184 29 331 113 380 54 32 117 40 188 26 74 -16 130 -58 169 -126 27 -48
35 -55 61 -55 30 0 30 1 25 38 -3 20 -9 65 -13 98 -3 34 -10 67 -14 74 -22 35
-319 60 -410 35z"/>
<path d="M1274 1379 c-89 -20 -194 -107 -194 -161 0 -12 13 -24 36 -34 64 -27
124 3 124 62 0 23 7 38 26 53 35 27 59 26 89 -4 21 -20 25 -34 25 -84 0 -68
-2 -70 -85 -90 -89 -22 -173 -68 -202 -112 -21 -33 -25 -47 -21 -89 12 -120
138 -164 270 -96 45 23 53 25 60 11 17 -28 68 -48 111 -41 56 9 114 44 122 73
8 34 -1 43 -36 36 -21 -4 -34 -1 -40 8 -5 8 -9 81 -9 162 0 82 -5 168 -11 192
-26 102 -126 145 -265 114z m106 -381 c0 -82 -4 -93 -43 -107 -65 -25 -118 42
-90 114 6 17 95 65 121 65 8 0 12 -21 12 -72z"/>
<path d="M1940 1363 c-47 -12 -104 -22 -127 -22 -39 -1 -43 -3 -43 -26 0 -18
7 -26 25 -31 14 -3 34 -18 45 -31 19 -24 20 -42 20 -344 l0 -319 -22 -14 c-13
-8 -35 -18 -50 -21 -18 -5 -28 -14 -28 -26 0 -18 10 -19 186 -19 184 0 185 0
182 22 -2 14 -14 25 -35 32 -52 18 -57 29 -61 134 l-4 97 83 0 c102 0 169 21
228 71 68 59 94 114 99 209 4 74 1 89 -23 144 -30 66 -70 108 -138 143 -55 28
-170 32 -210 6 -14 -10 -28 -18 -31 -18 -3 0 -6 8 -8 18 -3 16 -8 16 -88 -5z
m235 -55 c15 -7 35 -29 46 -50 34 -67 44 -234 18 -314 -22 -71 -97 -102 -157
-64 -48 30 -54 56 -50 226 3 135 5 154 23 174 35 39 76 48 120 28z"/>
<path d="M2784 1379 c-89 -20 -194 -107 -194 -161 0 -12 13 -24 36 -34 64 -27
124 3 124 62 0 23 7 38 26 53 35 27 59 26 89 -4 21 -20 25 -34 25 -84 0 -68
-2 -70 -85 -90 -89 -22 -173 -68 -202 -112 -21 -33 -25 -47 -21 -89 12 -120
138 -164 270 -96 45 23 53 25 60 11 17 -28 68 -48 111 -41 56 9 114 44 122 73
8 34 -1 43 -36 36 -21 -4 -34 -1 -40 8 -5 8 -9 81 -9 162 0 82 -5 168 -11 192
-26 102 -126 145 -265 114z m106 -381 c0 -82 -4 -93 -43 -107 -65 -25 -118 42
-90 114 6 17 95 65 121 65 8 0 12 -21 12 -72z"/>
<path d="M3402 1372 c-62 -22 -90 -45 -108 -89 -19 -44 -17 -90 5 -139 20 -44
67 -82 161 -129 72 -36 100 -62 100 -96 0 -37 -25 -54 -79 -54 -62 0 -99 25
-124 86 -18 43 -25 49 -50 49 l-29 0 6 -57 c13 -111 12 -110 69 -130 75 -26
209 -24 262 4 82 43 116 114 95 193 -15 57 -50 92 -132 135 -109 56 -138 81
-138 115 0 40 38 65 86 57 46 -8 72 -31 96 -84 15 -34 24 -43 43 -43 24 0 25
3 25 59 0 86 -9 118 -34 125 -11 4 -61 9 -111 12 -72 4 -100 1 -143 -14z"/>
<path d="M5394 1379 c-89 -20 -194 -107 -194 -161 0 -12 13 -24 36 -34 64 -27
124 3 124 62 0 23 7 38 26 53 35 27 59 26 89 -4 21 -20 25 -34 25 -84 0 -68
-2 -70 -85 -90 -89 -22 -173 -68 -202 -112 -21 -33 -25 -47 -21 -89 12 -120
138 -164 270 -96 45 23 53 25 60 11 17 -28 68 -48 111 -41 56 9 114 44 122 73
8 34 -1 43 -36 36 -21 -4 -34 -1 -40 8 -5 8 -9 81 -9 162 0 82 -5 168 -11 192
-26 102 -126 145 -265 114z m106 -381 c0 -82 -4 -93 -43 -107 -65 -25 -118 42
-90 114 6 17 95 65 121 65 8 0 12 -21 12 -72z"/>
<path d="M5813 1374 c-7 -20 3 -29 49 -43 41 -14 36 -4 173 -316 48 -110 94
-206 101 -214 11 -12 16 -12 29 -1 10 8 70 121 135 251 121 241 145 274 202
286 21 4 28 11 28 29 l0 24 -155 0 -155 0 0 -25 c0 -19 5 -25 20 -25 32 0 80
-29 80 -48 0 -22 -107 -248 -116 -245 -10 3 -104 224 -104 245 0 18 46 48 75
48 9 0 15 9 15 25 l0 25 -185 0 c-159 0 -186 -2 -192 -16z"/>
<path d="M6813 1380 c-200 -47 -278 -308 -144 -478 108 -136 318 -145 429 -17
49 55 38 95 -16 57 -64 -46 -170 -55 -223 -19 -38 25 -79 97 -79 139 l0 28
169 0 c214 0 220 3 185 119 -38 128 -181 205 -321 171z m116 -86 c32 -26 56
-90 45 -118 -5 -13 -23 -16 -100 -16 l-94 0 0 28 c1 41 36 111 62 122 37 15
55 11 87 -16z"/>
<path d="M7994 1379 c-89 -20 -194 -107 -194 -161 0 -12 13 -24 36 -34 64 -27
124 3 124 62 0 23 7 38 26 53 35 27 59 26 89 -4 21 -20 25 -34 25 -84 0 -68
-2 -70 -85 -90 -89 -22 -173 -68 -202 -112 -21 -33 -25 -47 -21 -89 12 -120
138 -164 270 -96 45 23 53 25 60 11 17 -28 68 -48 111 -41 56 9 114 44 122 73
8 34 -1 43 -36 36 -21 -4 -34 -1 -40 8 -5 8 -9 81 -9 162 0 82 -5 168 -11 192
-26 102 -126 145 -265 114z m106 -381 c0 -82 -4 -93 -43 -107 -65 -25 -118 42
-90 114 6 17 95 65 121 65 8 0 12 -21 12 -72z"/>
</g>
</svg>
