<?xml version="1.0" standalone="no"?>
<!DOCTYPE svg PUBLIC "-//W3C//DTD SVG 20010904//EN"
 "http://www.w3.org/TR/2001/REC-SVG-20010904/DTD/svg10.dtd">
<svg version="1.0" xmlns="http://www.w3.org/2000/svg"
 width="45" height="45" viewBox="0 0 225.000000 225.000000"
 preserveAspectRatio="xMidYMid meet">
<metadata>
Created by potrace 1.16, written by Peter Selinger 2001-2019
</metadata>
<g transform="translate(0.000000,225.000000) scale(0.100000,-0.100000)"
fill="#000000" stroke="none">
<path d="M627 1839 c-94 -22 -169 -88 -203 -175 -18 -46 -19 -82 -19 -539 0
-458 1 -493 19 -539 25 -66 84 -128 149 -157 l52 -24 500 0 500 0 52 24 c65
29 124 91 149 157 18 46 19 81 19 539 0 458 -1 493 -19 539 -25 66 -84 128
-149 157 l-52 24 -480 2 c-264 1 -497 -3 -518 -8z m423 -429 c56 -77 105 -140
108 -139 4 0 59 63 122 139 l115 139 58 0 58 1 -128 -151 c-70 -83 -138 -164
-151 -180 l-23 -28 176 -240 c96 -132 175 -242 175 -245 0 -3 -56 -6 -125 -6
l-125 0 -116 157 c-113 152 -117 156 -133 136 -9 -12 -68 -82 -131 -157 l-115
-136 -52 0 c-29 0 -53 2 -53 5 0 3 68 85 151 183 83 97 153 182 156 189 3 7
-70 114 -161 237 -91 124 -166 227 -166 230 0 4 58 6 129 6 l129 0 102 -140z"/>
<path d="M810 1485 c0 -3 118 -165 262 -360 l262 -355 54 0 c50 0 52 1 40 18
-7 10 -125 172 -262 360 l-250 342 -53 0 c-29 0 -53 -2 -53 -5z"/>
</g>
</svg>
