<?xml version="1.0" encoding="UTF-8"?>
<svg version="1.1" viewBox="0 0 2048 2048" width="40" height="40" xmlns="http://www.w3.org/2000/svg">
<path transform="translate(430,299)" d="m0 0h1192l38 2 26 3 24 4 36 9 29 10 23 10 25 12 21 12 20 13 21 16 9 7 20 18 13 12 7 8 13 14 11 14 13 17 11 17 13 22 12 23 9 20 11 30 9 32 5 24 5 33 2 19v645l-4 35-5 30-7 29-7 22-9 25-14 30-9 17-11 18-12 18-13 17-7 9-11 12-9 10-20 20-8 7-9 8-20 15-17 12-27 16-23 12-20 9-27 10-19 6-28 7-30 5-27 3-17 1-36 1h-1135l-58-1-31-2-33-5-22-5-26-7-28-10-25-11-16-8-17-9-16-10-12-8-19-14-17-14-7-7-8-7-20-20-7-8-9-10-15-20-11-15-13-22-9-16-15-31-11-30-6-19-8-33-6-38-2-18v-657l6-42 4-20 6-24 6-19 10-28 15-31 7-14 20-32 10-13 12-16 9-10 1-2h2l2-4 16-17 17-16 8-7 15-12 18-13 15-10 24-14 26-13 24-10 25-9 40-10 30-5 17-2zm334 427-9 3-8 7-4 8v560l4 9 6 6 8 3h8l16-6 45-22 26-12 16-8 40-19 31-15 28-13 35-17 26-12 16-8 34-16 37-18 28-13 33-16 28-13 17-8 16-8 51-24 16-8 24-11 9-7 4-5 2-5v-11l-4-8-8-7-35-18-54-27-19-10-68-34-19-10-50-25-19-10-60-30-19-10-54-27-19-10-64-32-19-10-56-28-10-4z" fill="#FE2409"/>
</svg>
